<?xml version="1.0" encoding="UTF-8" standalone="no"?>
<svg
   xmlns:dc="http://purl.org/dc/elements/1.1/"
   xmlns:cc="http://creativecommons.org/ns#"
   xmlns:rdf="http://www.w3.org/1999/02/22-rdf-syntax-ns#"
   xmlns:svg="http://www.w3.org/2000/svg"
   xmlns="http://www.w3.org/2000/svg"
   xmlns:sodipodi="http://sodipodi.sourceforge.net/DTD/sodipodi-0.dtd"
   xmlns:inkscape="http://www.inkscape.org/namespaces/inkscape"
   viewBox="0 0 1083.3827 1329.5787"
   height="1329.5787"
   width="1083.3827"
   id="svg2"
   version="1.1"
   sodipodi:docname="calculator.svg"
   inkscape:version="0.92.4 (5da689c313, 2019-01-14)">
  <sodipodi:namedview
     pagecolor="#ffffff"
     bordercolor="#666666"
     borderopacity="1"
     objecttolerance="10"
     gridtolerance="10"
     guidetolerance="10"
     inkscape:pageopacity="0"
     inkscape:pageshadow="2"
     inkscape:window-width="2400"
     inkscape:window-height="1321"
     id="namedview6"
     showgrid="false"
     inkscape:zoom="0.118"
     inkscape:cx="1000"
     inkscape:cy="999.99998"
     inkscape:window-x="-9"
     inkscape:window-y="-9"
     inkscape:window-maximized="1"
     inkscape:current-layer="svg2"
     fit-margin-top="0"
     fit-margin-left="0"
     fit-margin-right="0"
     fit-margin-bottom="0"
     inkscape:pagecheckerboard="true"
     showborder="false" />
  <metadata
     id="metadata8">
    <rdf:RDF>
      <cc:Work
         rdf:about="">
        <dc:format>image/svg+xml</dc:format>
        <dc:type
           rdf:resource="http://purl.org/dc/dcmitype/StillImage" />
        <dc:title></dc:title>
      </cc:Work>
    </rdf:RDF>
  </metadata>
  <defs
     id="defs6" />
  <path
     id="path817"
     d="M 683.82953,0.0769581 C 475.66035,0.2881381 267.4912,0.5428381 59.322,0.7762781 31.2225,11.109638 6.4504,34.800848 0,64.244558 0,465.40487 0,866.56507 0,1267.7254 c 12.7267,34.3228 46.4236,65.0695 85.0222,60.7291 294.7225,1.6153 589.46023,1.3781 884.18293,0 25.4157,-1.8214 54.25727,4.4571 75.67937,-12.9891 24.0157,-16.6538 41.9357,-45.3715 37.7656,-75.2781 -0.095,-384.11463 1.9445,-768.23763 -0.398,-1152.346892 4.2788,-44.3678 -34.4393,-90.3242799 -80.3405,-86.7122399 -106.01017,-1.82453 -212.05977,-0.83444 -318.08207,-1.04691 z M 659.84173,120.58725 c 88.145,0.83488 176.417,-1.60446 264.4788,2.35865 20.6952,4.5946 34.2655,26.82679 31.2005,47.53887 1.3464,84.56439 2.4314,169.2714 -1.2747,253.772 -5.0383,20.656 -26.4271,34.7041 -47.4356,31.4547 -234.1226,2.8911 -468.29015,2.1309 -702.41953,0.1884 -20.3324,-2.1326 -42.4256,3.2896 -61.5607,-4.9986 -14.8605,-8.661 -25.0997,-25.9878 -22.1557,-43.3451 0.4176,-84.06068 -2.8649,-168.26898 1.0686,-252.23888 4.1492,-20.33456 23.4866,-36.35743 44.6818,-33.40588 164.4406,-2.48755 328.95738,-0.84164 493.41653,-1.32416 z m -95.83558,459.65472 c 20.2364,1.961 42.7787,-3.9869 61.52758,5.4828 12.2007,8.6792 20.6548,22.4067 17.4747,37.7218 -1.0197,47.7196 2.2486,95.7659 -2.3587,143.2816 -6.8613,15.8963 -23.76698,24.8361 -40.77148,22.5024 -46.7374,0.4279 -93.70211,2.3802 -140.31461,-1.2414 -22.25945,-5.7511 -27.51314,-31.0806 -25.95865,-50.992 0.24165,-44.3092 -2.03303,-89.0066 2.30598,-133.0694 6.28288,-15.0405 21.77775,-25.3609 38.3244,-22.8767 29.91138,-0.9855 59.84765,-0.8019 89.77078,-0.8091 z m -338.37065,1.0428 c 27.7125,0.8683 56.5959,-1.7292 83.5834,1.2849 13.2075,7.0403 21.5688,20.0597 20.6192,35.241 1.2598,48.0328 2.968,96.3157 -0.2938,144.2664 -4.486,21.5046 -27.6991,29.869 -47.3757,27.5879 -44.9356,-0.4793 -90.1519,2.2821 -134.9063,-2.2055 -22.6263,-4.5061 -27.8028,-30.3795 -27.0334,-50.0199 0.1114,-43.8658 -1.9018,-88.0656 2.9876,-131.7077 3.4072,-15.4231 19.4707,-27.9302 35.3507,-24.4471 22.3561,0 44.7122,0 67.0683,0 z m 625.00003,0 c 27.7125,0.8683 56.5959,-1.7292 83.5834,1.2849 13.2075,7.0403 21.5687,20.0597 20.6191,35.241 1.2599,48.0328 2.968,96.3157 -0.2938,144.2664 -4.486,21.5046 -27.6991,29.869 -47.3757,27.5879 -44.9355,-0.4793 -90.1518,2.2821 -134.9063,-2.2055 -22.6262,-4.5061 -27.8027,-30.3795 -27.0334,-50.0199 0.1115,-43.8658 -1.9017,-88.0656 2.9876,-131.7077 3.4072,-15.4231 19.4707,-27.9302 35.3508,-24.4471 22.3561,0 44.7122,0 67.0683,0 z m -294.81428,348.5541 c 21.8832,1.2887 44.7948,-1.9368 66.05038,3.5256 14.3319,7.1554 22.6107,22.1166 20.5492,38.0197 1.0702,47.28773 0.3901,94.59523 0.5876,141.89123 -7.6486,15.6056 -22.7326,28.4847 -41.14808,25.8334 -47.3227,-0.146 -94.89303,2.2367 -142.06498,-1.8828 -21.36432,-3.7094 -27.01082,-27.9577 -25.9918,-46.483 -0.0115,-44.6209 -2.46606,-89.5639 1.77223,-133.99483 4.75356,-22.04 29.09343,-28.158 48.63303,-26.5505 23.86623,-0.4968 47.74235,-0.3848 71.61242,-0.3588 z m -307.10825,0.045 c 23.4421,2.3808 51.2178,-5.8279 70.8753,10.5974 17.5992,17.7864 9.3129,44.932 11.6732,67.24213 -1.2252,36.7323 2.2155,74.0355 -3.8938,110.3764 -5.6338,13.2422 -19.9586,23.5025 -34.6593,20.4996 -48.1358,0.3618 -96.2717,0.7267 -144.4075,1.0924 -13.9867,-6.852 -27.5755,-17.8463 -26.3341,-35.0735 -2.3759,-48.6875 -0.6859,-97.484 -1.2041,-146.21543 6.7441,-16.7681 22.4482,-30.0014 41.324,-28.0581 28.8624,-0.8407 57.7548,-0.3867 86.6263,-0.4609 z m 625.00003,0 c 23.442,2.3808 51.2177,-5.8279 70.8752,10.5974 17.5993,17.7864 9.313,44.932 11.6733,67.24213 -1.2252,36.7323 2.2155,74.0355 -3.8938,110.3764 -5.6339,13.2422 -19.9586,23.5025 -34.6593,20.4996 -48.1359,0.3618 -96.2717,0.7267 -144.4075,1.0924 -13.9867,-6.852 -27.5756,-17.8463 -26.3341,-35.0735 -2.3759,-48.6875 -0.6859,-97.484 -1.2042,-146.21543 6.7442,-16.7681 22.4482,-30.0014 41.3241,-28.0581 28.8624,-0.8407 57.7547,-0.3867 86.6263,-0.4609 z"
     style="opacity:1;fill:#ffffff;fill-opacity:1;fill-rule:nonzero;stroke:none;stroke-width:24.02242088;stroke-linecap:butt;stroke-linejoin:round;stroke-miterlimit:4;stroke-dasharray:none;stroke-dashoffset:0;stroke-opacity:1;paint-order:markers stroke fill"
     inkscape:connector-curvature="0" />
</svg>
